<svg width="90" height="32" viewBox="0 0 90 32" fill="none" xmlns="http://www.w3.org/2000/svg">
<g clip-path="url(#clip0)">
<path d="M49.4775 24.75H54.72L59.985 8.66251H55.665L52.38 19.9575L49.1175 8.66251H44.145L49.4775 24.75ZM65.6826 22.0275C64.1301 22.0275 63.3426 20.925 63.3426 18.9V18.72C63.3426 16.74 64.1751 15.6825 65.6826 15.6825C67.2126 15.6825 68.0001 16.785 68.0001 18.765V18.945C68.0001 20.9025 67.1901 22.0275 65.6826 22.0275ZM65.6601 25.02C69.2826 25.02 72.0951 22.725 72.0951 18.9V18.72C72.0951 14.985 69.3051 12.6675 65.6826 12.6675C62.0376 12.6675 59.2251 15.0525 59.2251 18.8325V19.0125C59.2251 22.815 62.0376 25.02 65.6601 25.02ZM73.8516 24.75H77.8792V19.17C77.8792 17.28 79.2292 16.515 81.6817 16.5825V12.825C79.8592 12.8025 78.6217 13.5675 77.8792 15.3225V12.9825H73.8516V24.75ZM83.5882 24.75H87.6157V12.9825H83.5882V24.75ZM85.5907 11.8575C86.8507 11.8575 87.8182 10.98 87.8182 9.78751C87.8182 8.59501 86.8507 7.69501 85.5907 7.69501C84.3307 7.69501 83.3857 8.59501 83.3857 9.78751C83.3857 10.98 84.3307 11.8575 85.5907 11.8575Z" fill="white"/>
<path fill-rule="evenodd" clip-rule="evenodd" d="M0 11.25C0 5.03679 5.03679 0 11.25 0H20.25C26.4633 0 31.5 5.03679 31.5 11.25V20.25C31.5 26.4633 26.4633 31.5 20.25 31.5H11.25C5.03679 31.5 0 26.4633 0 20.25V11.25ZM8.81998 10.5517C8.60281 10.5517 8.46958 10.7909 8.58314 10.977L16.1624 23.3954C16.2754 23.5806 16.5462 23.5709 16.6458 23.3781L18.0118 20.7342C18.0558 20.6489 18.0532 20.547 18.0047 20.4641L12.2958 10.6896C12.2458 10.6042 12.1547 10.5517 12.0562 10.5517H8.81998ZM20.2742 10.8671C20.1927 10.7274 20.293 10.5517 20.454 10.5517H23.0277C23.2378 10.5517 23.3719 10.7768 23.2726 10.9628L22.043 13.269C21.9662 13.4131 21.762 13.4171 21.6796 13.276L20.2742 10.8671Z" fill="white"/>
</g>
<defs>
<clipPath id="clip0">
<rect width="90" height="31.5" fill="white"/>
</clipPath>
</defs>
</svg>
